<?xml version="1.0" encoding="utf-8"?>
<!-- Generator: Adobe Illustrator 23.0.1, SVG Export Plug-In . SVG Version: 6.00 Build 0)  -->
<svg version="1.1" xmlns="http://www.w3.org/2000/svg" xmlns:xlink="http://www.w3.org/1999/xlink" x="0px" y="0px"
	 viewBox="0 0 600 600" style="enable-background:new 0 0 600 600;" xml:space="preserve">
<style type="text/css">
	.st0{fill:#22C8D4;}
	.st1{fill-rule:evenodd;clip-rule:evenodd;fill:#7600F5;}
	.st2{fill-rule:evenodd;clip-rule:evenodd;fill:#28F79E;}
	.st3{fill:#3188EB;}
	.st4{fill:#F5004A;}
</style>
<g id="Sliced_Circle">
	<path class="st0" d="M487.8,101.7L146.4,443.1c-44.8-43.8-72.7-105-72.7-172.6c0-133.4,108.1-241.5,241.5-241.5
		C382.9,29.1,444,56.9,487.8,101.7z"/>
	<g>
		<path class="st1" d="M532,327.2c0,134.6-109.1,243.7-243.7,243.7c-66.3,0-126.5-26.5-170.4-69.5l344.6-344.6
			C505.5,200.8,532,260.9,532,327.2z"/>
	</g>
</g>
<g id="Controller">
	<path class="st2" d="M575.3,368.5c-36.1,54.5-98.5,52.4-103.3,52.2c-52.2-2.7-84.1-42.3-91.8-52.2c-28.2-36.1-33.3-76.7-34.4-91.3
		h-91.8c-1.1,14.6-6.2,55.2-34.4,91.3c-7.7,9.9-39.6,49.4-91.8,52.2c-4.7,0.3-67.1,2.3-103.3-52.2C0,331.2,1.1,290.1,1.7,277.2
		C4,225.9,30.3,172.5,70.5,146.7c18.5-11.9,32.2-12.9,183.6-13h91.8c151.3,0.1,165.1,1.2,183.6,13c40.3,25.8,66.5,79.2,68.8,130.5
		C598.9,290.1,600,331.2,575.3,368.5z"/>
	<path class="st3" d="M119,325.5L119,325.5c-4.1,0-7.5-3.4-7.5-7.5V214c0-4.1,3.4-7.5,7.5-7.5h0c4.1,0,7.5,3.4,7.5,7.5v104
		C126.5,322.1,123.1,325.5,119,325.5z"/>
	<path class="st3" d="M59.5,266L59.5,266c0-4.1,3.4-7.5,7.5-7.5h104c4.1,0,7.5,3.4,7.5,7.5l0,0c0,4.1-3.4,7.5-7.5,7.5H67
		C62.9,273.5,59.5,270.1,59.5,266z"/>
	<circle class="st4" cx="479" cy="311.3" r="15.9"/>
	<circle class="st4" cx="479" cy="222.1" r="15.9"/>
	<circle class="st4" cx="437.6" cy="266.7" r="15.9"/>
	<circle class="st4" cx="523.6" cy="266.7" r="15.9"/>
</g>
<g id="Title">
	<g>
		<path d="M18.9,447.4h49.8v16.1H34.6v19.2h29.6v16.1H34.6v33.2H18.9V447.4z"/>
		<path d="M115.4,505.6l-29.3-58.2h19.4l20.6,43.9l-4.7,0.3l20.2-44.2H161l-29.9,58.2v26.3h-15.7V505.6z"/>
		<path d="M207.1,447.4c8.3,0,14.9,1.8,19.8,5.3c4.9,3.6,7.4,8.9,7.4,15.9c0,5.2-1.2,9.5-3.6,13c-2.4,3.5-5.7,6.1-9.9,7.8
			c-4.2,1.7-8.9,2.6-14.2,2.6l-2.5-9c6.6,0,12.4,1,17.5,2.9c5.1,1.9,9.1,4.7,12.1,8.2c3,3.6,4.4,7.8,4.4,12.8
			c0,4.6-0.8,8.5-2.3,11.7c-1.6,3.2-3.6,5.7-6.3,7.7c-2.6,2-5.6,3.4-8.9,4.2c-3.3,0.9-6.8,1.3-10.3,1.3h-26.5v-84.5H207.1z
			 M208.9,482c3.1,0,5.4-1,6.9-3c1.5-2,2.2-4.2,2.2-6.8c0-2.9-0.9-5.1-2.8-6.5c-1.8-1.5-4.3-2.2-7.4-2.2h-8.4V482H208.9z
			 M209.5,516.4c2.3,0,4.4-0.3,6.3-1c1.9-0.6,3.4-1.7,4.4-3.1c1.1-1.4,1.6-3.2,1.6-5.3c0-2.4-0.6-4.3-1.9-5.6c-1.3-1.3-3-2.1-5-2.6
			c-2.1-0.5-4.2-0.7-6.4-0.7h-9v18.4H209.5z"/>
		<path d="M264.6,447.4h54.4v16.1h-38.7v18h34.2v16.1h-34.2v18.3h40.2v16.1h-55.9V447.4z"/>
		<path d="M371.7,447.4c5,0,9.4,0.7,13.3,2c3.9,1.3,7.2,3.3,9.8,5.7s4.6,5.5,6,9c1.4,3.5,2.1,7.4,2.1,11.8c0,3.4-0.5,6.9-1.5,10.3
			c-1,3.4-2.6,6.6-4.8,9.4c-2.2,2.8-5.1,5.1-8.7,6.8c-3.6,1.7-8.1,2.6-13.4,2.6h-11.3v26.9h-15.7v-84.5H371.7z M374.4,489
			c2.4,0,4.4-0.4,6-1.3c1.6-0.8,2.8-1.9,3.7-3.2c0.9-1.3,1.6-2.7,1.9-4.1c0.4-1.4,0.6-2.7,0.6-4c0-0.9-0.1-2.1-0.4-3.5
			c-0.3-1.4-0.8-2.8-1.6-4.3c-0.8-1.5-2-2.7-3.6-3.7c-1.6-1-3.8-1.5-6.5-1.5h-11.3V489H374.4z M389.1,499.3l19.7,32.6h-18.3
			l-20.1-32.1L389.1,499.3z"/>
		<path d="M432.6,447.4H487v16.1h-38.7v18h34.2v16.1h-34.2v18.3h40.2v16.1h-55.9V447.4z"/>
		<path d="M508,531.9l28.4-47.3l7.4,16.8l-16.2,30.5H508z M509.1,447.4h20l52,84.5h-20.2L509.1,447.4z M544.8,478.4l16.5-31h19.1
			l-27.4,45.3L544.8,478.4z"/>
	</g>
</g>
</svg>
