<?xml version="1.0" encoding="utf-8"?>
<!-- Generator: Adobe Illustrator 23.0.1, SVG Export Plug-In . SVG Version: 6.00 Build 0)  -->
<svg version="1.1" xmlns="http://www.w3.org/2000/svg" xmlns:xlink="http://www.w3.org/1999/xlink" x="0px" y="0px"
	 viewBox="0 0 200 200" style="enable-background:new 0 0 200 200;" xml:space="preserve">
<style type="text/css">
	.st0{fill:#E6E6E6;}
	.st1{fill:#FF4D4D;}
	.st2{opacity:0;}
</style>
<g id="Background">
	<g>
		<circle class="st0" cx="100" cy="100" r="90"/>
	</g>
</g>
<g id="Settings">
	<path class="st1" d="M151.2,108.9c-2.6-2.4-4-5.7-4-8.9c0-3.3,1.3-6.6,4-8.9c8.2-7.4,2.9-21-8-21c-0.2,0-0.4,0-0.7,0
		c-6.9,0.4-12.7-5.2-12.7-12c0-0.2,0-0.4,0-0.6c0.6-11.3-13.4-17.1-21-8.7c-2.4,2.6-5.7,4-8.9,4s-6.6-1.3-8.9-4
		c-7.4-8.2-21-2.9-21,8c0,0.2,0,0.5,0,0.7c0.4,6.9-5.2,12.7-12,12.7c-0.2,0-0.4,0-0.6,0c-7.6-0.4-12.7,5.8-12.7,12.1
		c0,3.1,1.2,6.3,4,8.8c2.6,2.4,4,5.7,4,8.9c0,3.3-1.3,6.6-4,8.9c-8.2,7.4-2.9,21,8,21c0.2,0,0.5,0,0.7,0c6.9-0.4,12.7,5.2,12.7,12
		c0,0.2,0,0.4,0,0.6c-0.4,7.6,5.8,12.7,12.1,12.7c3.1,0,6.3-1.2,8.8-4c2.4-2.6,5.7-4,8.9-4s6.6,1.3,8.9,4c7.4,8.2,21,2.9,21-8
		c0-0.2,0-0.5,0-0.7c-0.4-6.9,5.2-12.7,12-12.7c0.2,0,0.4,0,0.6,0c7.6,0.4,12.7-5.8,12.7-12.1C155.3,114.6,154,111.4,151.2,108.9z
		 M100,120.7c-11.4,0-20.7-9.3-20.7-20.7s9.3-20.7,20.7-20.7s20.7,9.3,20.7,20.7S111.4,120.7,100,120.7z"/>
</g>
<g id="Overlay">
	<g class="st2">
		<circle class="st0" cx="100" cy="100" r="90"/>
	</g>
</g>
</svg>
